<?xml version="1.0" encoding="utf-8"?>
<!-- Generator: Adobe Illustrator 26.0.1, SVG Export Plug-In . SVG Version: 6.00 Build 0)  -->
<svg version="1.1" id="Calque_1" xmlns="http://www.w3.org/2000/svg" xmlns:xlink="http://www.w3.org/1999/xlink" x="0px" y="0px"
	 viewBox="0 0 25.7 25.5" style="enable-background:new 0 0 25.7 25.5;" xml:space="preserve">
<style type="text/css">
	.st0{fill:none;stroke:#F23030;stroke-width:2;}
	.st1{fill:#908FB2;stroke:#F23030;stroke-width:2;}
	.st2{display:none;}
	.st3{display:inline;}
	.st4{fill:#F23030;}
</style>
<g id="Page-1">
	<g id="Group-5">
		<polyline id="Path-2" class="st0" points="22.3,2.6 22.3,22.2 2.7,22.2 		"/>
		<line id="Path-3" class="st1" x1="22.3" y1="22.2" x2="3.2" y2="3.1"/>
	</g>
</g>
<g class="st2">
	<g class="st3">
		<path class="st4" d="M12.9,23.6C12.9,23.6,12.9,23.6,12.9,23.6c-0.5-0.9-1.2-1.6-1.9-2.3c-0.9-0.9-1.9-1.7-2.9-2.4
			c-1.2-1-2.5-1.9-3.6-3C3.6,14.9,2.8,14,2.1,13c-0.7-1.1-1.2-2.3-1.4-3.6C0.5,7.4,0.8,5.7,2.1,4.2c1.1-1.3,2.5-2.1,4.3-2.3
			C7.7,1.8,9,2,10.2,2.6c1.2,0.6,2,1.6,2.5,2.8c0.1,0.3,0.2,0.5,0.3,0.8c0-0.1,0-0.1,0.1-0.2C13.4,5,13.9,4,14.8,3.3
			c0.9-0.8,1.9-1.2,3.1-1.3c1.6-0.2,3.1,0.1,4.5,1c1.6,1,2.5,2.5,2.7,4.3C25.4,9.3,25,11,24,12.7c-0.7,1.2-1.7,2.2-2.7,3.2
			c-1.1,1-2.3,1.9-3.4,2.9c-1,0.8-2,1.6-3,2.5c-0.6,0.6-1.2,1.2-1.7,1.9C13.1,23.3,13,23.4,12.9,23.6C13,23.6,13,23.6,12.9,23.6z"/>
	</g>
</g>
</svg>
